<mxfile host="app.diagrams.net" agent="Mozilla/5.0 (Windows NT 10.0; Win64; x64) AppleWebKit/537.36 (KHTML, like Gecko) Chrome/129.0.0.0 Safari/537.36" version="24.7.17">
  <diagram name="Page-1" id="jaCKgoJ2aKXBYlhhrfMc">
    <mxGraphModel dx="1039" dy="540" grid="1" gridSize="10" guides="1" tooltips="1" connect="1" arrows="1" fold="1" page="1" pageScale="1" pageWidth="827" pageHeight="1169" math="0" shadow="0">
      <root>
        <mxCell id="0" />
        <mxCell id="1" parent="0" />
        <mxCell id="E1LqTrFetXGLPaoEPakD-1" value="" style="ellipse;whiteSpace=wrap;html=1;aspect=fixed;fillColor=#e1d5e7;strokeColor=#9673a6;" parent="1" vertex="1">
          <mxGeometry x="120" y="240" width="80" height="80" as="geometry" />
        </mxCell>
        <mxCell id="E1LqTrFetXGLPaoEPakD-2" value="Registrovany&lt;div&gt;uzivatel&lt;/div&gt;" style="text;html=1;align=center;verticalAlign=middle;whiteSpace=wrap;rounded=0;" parent="1" vertex="1">
          <mxGeometry x="130" y="330" width="60" height="30" as="geometry" />
        </mxCell>
        <mxCell id="E1LqTrFetXGLPaoEPakD-3" value="" style="rhombus;whiteSpace=wrap;html=1;fillColor=#fff2cc;strokeColor=#d6b656;" parent="1" vertex="1">
          <mxGeometry x="320" y="240" width="80" height="80" as="geometry" />
        </mxCell>
        <mxCell id="E1LqTrFetXGLPaoEPakD-4" value="" style="endArrow=classic;html=1;rounded=0;exitX=1;exitY=0.5;exitDx=0;exitDy=0;entryX=0;entryY=0.5;entryDx=0;entryDy=0;" parent="1" source="E1LqTrFetXGLPaoEPakD-1" target="E1LqTrFetXGLPaoEPakD-3" edge="1">
          <mxGeometry width="50" height="50" relative="1" as="geometry">
            <mxPoint x="230" y="370" as="sourcePoint" />
            <mxPoint x="280" y="320" as="targetPoint" />
          </mxGeometry>
        </mxCell>
        <mxCell id="E1LqTrFetXGLPaoEPakD-5" value="Vyber&lt;div&gt;konferenci&lt;/div&gt;" style="text;html=1;align=center;verticalAlign=middle;whiteSpace=wrap;rounded=0;" parent="1" vertex="1">
          <mxGeometry x="330" y="330" width="60" height="30" as="geometry" />
        </mxCell>
        <mxCell id="E1LqTrFetXGLPaoEPakD-6" value="" style="rhombus;whiteSpace=wrap;html=1;fillColor=#fff2cc;strokeColor=#d6b656;" parent="1" vertex="1">
          <mxGeometry x="480" y="240" width="80" height="80" as="geometry" />
        </mxCell>
        <mxCell id="E1LqTrFetXGLPaoEPakD-7" value="Konkretni&lt;div&gt;konference&lt;/div&gt;" style="text;html=1;align=center;verticalAlign=middle;whiteSpace=wrap;rounded=0;" parent="1" vertex="1">
          <mxGeometry x="490" y="330" width="60" height="30" as="geometry" />
        </mxCell>
        <mxCell id="E1LqTrFetXGLPaoEPakD-8" value="" style="endArrow=classic;html=1;rounded=0;exitX=1;exitY=0.5;exitDx=0;exitDy=0;entryX=0;entryY=0.5;entryDx=0;entryDy=0;" parent="1" source="E1LqTrFetXGLPaoEPakD-3" target="E1LqTrFetXGLPaoEPakD-6" edge="1">
          <mxGeometry width="50" height="50" relative="1" as="geometry">
            <mxPoint x="350" y="360" as="sourcePoint" />
            <mxPoint x="400" y="310" as="targetPoint" />
          </mxGeometry>
        </mxCell>
        <mxCell id="E1LqTrFetXGLPaoEPakD-10" value="" style="rhombus;whiteSpace=wrap;html=1;fillColor=#fff2cc;strokeColor=#d6b656;" parent="1" vertex="1">
          <mxGeometry x="680" y="120" width="80" height="80" as="geometry" />
        </mxCell>
        <mxCell id="E1LqTrFetXGLPaoEPakD-11" value="Rezervovat&lt;div&gt;vstupenku&lt;/div&gt;" style="text;html=1;align=center;verticalAlign=middle;whiteSpace=wrap;rounded=0;" parent="1" vertex="1">
          <mxGeometry x="690" y="210" width="60" height="30" as="geometry" />
        </mxCell>
        <mxCell id="E1LqTrFetXGLPaoEPakD-12" value="" style="rhombus;whiteSpace=wrap;html=1;fillColor=#fff2cc;strokeColor=#d6b656;" parent="1" vertex="1">
          <mxGeometry x="680" y="360" width="80" height="80" as="geometry" />
        </mxCell>
        <mxCell id="E1LqTrFetXGLPaoEPakD-13" value="Zadost o&amp;nbsp;&lt;div&gt;prednaseni&lt;/div&gt;" style="text;html=1;align=center;verticalAlign=middle;whiteSpace=wrap;rounded=0;" parent="1" vertex="1">
          <mxGeometry x="690" y="450" width="60" height="30" as="geometry" />
        </mxCell>
        <mxCell id="E1LqTrFetXGLPaoEPakD-14" value="" style="endArrow=classic;html=1;rounded=0;exitX=1;exitY=0.5;exitDx=0;exitDy=0;entryX=0;entryY=0.5;entryDx=0;entryDy=0;" parent="1" source="E1LqTrFetXGLPaoEPakD-6" target="E1LqTrFetXGLPaoEPakD-12" edge="1">
          <mxGeometry width="50" height="50" relative="1" as="geometry">
            <mxPoint x="440" y="360" as="sourcePoint" />
            <mxPoint x="490" y="310" as="targetPoint" />
          </mxGeometry>
        </mxCell>
        <mxCell id="E1LqTrFetXGLPaoEPakD-15" value="" style="endArrow=classic;html=1;rounded=0;exitX=1;exitY=0.5;exitDx=0;exitDy=0;entryX=0;entryY=0.5;entryDx=0;entryDy=0;" parent="1" source="E1LqTrFetXGLPaoEPakD-6" target="E1LqTrFetXGLPaoEPakD-10" edge="1">
          <mxGeometry width="50" height="50" relative="1" as="geometry">
            <mxPoint x="440" y="360" as="sourcePoint" />
            <mxPoint x="490" y="310" as="targetPoint" />
          </mxGeometry>
        </mxCell>
        <mxCell id="E1LqTrFetXGLPaoEPakD-16" value="" style="rhombus;whiteSpace=wrap;html=1;fillColor=#fff2cc;strokeColor=#d6b656;" parent="1" vertex="1">
          <mxGeometry x="840" y="360" width="80" height="80" as="geometry" />
        </mxCell>
        <mxCell id="E1LqTrFetXGLPaoEPakD-17" value="Vlozit + zaslat navrh prezentace" style="text;html=1;align=center;verticalAlign=middle;whiteSpace=wrap;rounded=0;" parent="1" vertex="1">
          <mxGeometry x="830" y="450" width="100" height="30" as="geometry" />
        </mxCell>
        <mxCell id="E1LqTrFetXGLPaoEPakD-18" value="" style="rhombus;whiteSpace=wrap;html=1;fillColor=#d5e8d4;strokeColor=#82b366;" parent="1" vertex="1">
          <mxGeometry x="840" y="200" width="80" height="80" as="geometry" />
        </mxCell>
        <mxCell id="E1LqTrFetXGLPaoEPakD-19" value="Zaplatit vstupnku na miste" style="text;html=1;align=center;verticalAlign=middle;whiteSpace=wrap;rounded=0;" parent="1" vertex="1">
          <mxGeometry x="830" y="290" width="100" height="30" as="geometry" />
        </mxCell>
        <mxCell id="E1LqTrFetXGLPaoEPakD-20" value="" style="rhombus;whiteSpace=wrap;html=1;fillColor=#d5e8d4;strokeColor=#82b366;" parent="1" vertex="1">
          <mxGeometry x="840" y="40" width="80" height="80" as="geometry" />
        </mxCell>
        <mxCell id="E1LqTrFetXGLPaoEPakD-21" value="Zaplatit vstupenku online (simulace)" style="text;html=1;align=center;verticalAlign=middle;whiteSpace=wrap;rounded=0;" parent="1" vertex="1">
          <mxGeometry x="830" y="130" width="110" height="30" as="geometry" />
        </mxCell>
        <mxCell id="E1LqTrFetXGLPaoEPakD-22" value="" style="endArrow=classic;html=1;rounded=0;entryX=0;entryY=0.5;entryDx=0;entryDy=0;exitX=1;exitY=0.5;exitDx=0;exitDy=0;" parent="1" source="E1LqTrFetXGLPaoEPakD-10" target="E1LqTrFetXGLPaoEPakD-20" edge="1">
          <mxGeometry width="50" height="50" relative="1" as="geometry">
            <mxPoint x="740" y="120" as="sourcePoint" />
            <mxPoint x="860" as="targetPoint" />
          </mxGeometry>
        </mxCell>
        <mxCell id="E1LqTrFetXGLPaoEPakD-23" value="" style="endArrow=classic;html=1;rounded=0;entryX=0;entryY=0.5;entryDx=0;entryDy=0;exitX=1;exitY=0.5;exitDx=0;exitDy=0;" parent="1" source="E1LqTrFetXGLPaoEPakD-10" target="E1LqTrFetXGLPaoEPakD-18" edge="1">
          <mxGeometry width="50" height="50" relative="1" as="geometry">
            <mxPoint x="770" y="170" as="sourcePoint" />
            <mxPoint x="850" y="90" as="targetPoint" />
          </mxGeometry>
        </mxCell>
        <mxCell id="E1LqTrFetXGLPaoEPakD-24" value="" style="rhombus;whiteSpace=wrap;html=1;fillColor=#d5e8d4;strokeColor=#82b366;" parent="1" vertex="1">
          <mxGeometry x="1000" y="360" width="80" height="80" as="geometry" />
        </mxCell>
        <mxCell id="E1LqTrFetXGLPaoEPakD-25" value="Cekani na schvaleni poradatelem" style="text;html=1;align=center;verticalAlign=middle;whiteSpace=wrap;rounded=0;" parent="1" vertex="1">
          <mxGeometry x="990" y="450" width="100" height="30" as="geometry" />
        </mxCell>
        <mxCell id="E1LqTrFetXGLPaoEPakD-26" value="" style="endArrow=classic;html=1;rounded=0;entryX=0;entryY=0.5;entryDx=0;entryDy=0;exitX=1;exitY=0.5;exitDx=0;exitDy=0;" parent="1" source="E1LqTrFetXGLPaoEPakD-12" target="E1LqTrFetXGLPaoEPakD-16" edge="1">
          <mxGeometry width="50" height="50" relative="1" as="geometry">
            <mxPoint x="770" y="170" as="sourcePoint" />
            <mxPoint x="850" y="250" as="targetPoint" />
          </mxGeometry>
        </mxCell>
        <mxCell id="E1LqTrFetXGLPaoEPakD-27" value="" style="endArrow=classic;html=1;rounded=0;entryX=0;entryY=0.5;entryDx=0;entryDy=0;exitX=1;exitY=0.5;exitDx=0;exitDy=0;" parent="1" source="E1LqTrFetXGLPaoEPakD-16" target="E1LqTrFetXGLPaoEPakD-24" edge="1">
          <mxGeometry width="50" height="50" relative="1" as="geometry">
            <mxPoint x="770" y="410" as="sourcePoint" />
            <mxPoint x="850" y="410" as="targetPoint" />
          </mxGeometry>
        </mxCell>
        <mxCell id="E1LqTrFetXGLPaoEPakD-28" value="" style="ellipse;whiteSpace=wrap;html=1;aspect=fixed;fillColor=#e1d5e7;strokeColor=#9673a6;" parent="1" vertex="1">
          <mxGeometry x="120" y="680" width="80" height="80" as="geometry" />
        </mxCell>
        <mxCell id="E1LqTrFetXGLPaoEPakD-29" value="Neregistrovany&lt;div&gt;uzivatel&lt;/div&gt;" style="text;html=1;align=center;verticalAlign=middle;whiteSpace=wrap;rounded=0;" parent="1" vertex="1">
          <mxGeometry x="130" y="770" width="60" height="30" as="geometry" />
        </mxCell>
        <mxCell id="E1LqTrFetXGLPaoEPakD-30" value="" style="endArrow=classic;html=1;rounded=0;exitX=1;exitY=0.5;exitDx=0;exitDy=0;entryX=0;entryY=0.5;entryDx=0;entryDy=0;" parent="1" source="E1LqTrFetXGLPaoEPakD-28" target="E1LqTrFetXGLPaoEPakD-31" edge="1">
          <mxGeometry width="50" height="50" relative="1" as="geometry">
            <mxPoint x="230" y="810" as="sourcePoint" />
            <mxPoint x="320" y="720" as="targetPoint" />
          </mxGeometry>
        </mxCell>
        <mxCell id="E1LqTrFetXGLPaoEPakD-31" value="" style="rhombus;whiteSpace=wrap;html=1;fillColor=#fff2cc;strokeColor=#d6b656;" parent="1" vertex="1">
          <mxGeometry x="320" y="680" width="80" height="80" as="geometry" />
        </mxCell>
        <mxCell id="E1LqTrFetXGLPaoEPakD-32" value="Vyber&lt;div&gt;konferenci&lt;/div&gt;" style="text;html=1;align=center;verticalAlign=middle;whiteSpace=wrap;rounded=0;" parent="1" vertex="1">
          <mxGeometry x="330" y="770" width="60" height="30" as="geometry" />
        </mxCell>
        <mxCell id="E1LqTrFetXGLPaoEPakD-33" value="" style="rhombus;whiteSpace=wrap;html=1;fillColor=#fff2cc;strokeColor=#d6b656;" parent="1" vertex="1">
          <mxGeometry x="480" y="680" width="80" height="80" as="geometry" />
        </mxCell>
        <mxCell id="E1LqTrFetXGLPaoEPakD-34" value="Konkretni&lt;div&gt;konference&lt;/div&gt;" style="text;html=1;align=center;verticalAlign=middle;whiteSpace=wrap;rounded=0;" parent="1" vertex="1">
          <mxGeometry x="490" y="770" width="60" height="30" as="geometry" />
        </mxCell>
        <mxCell id="E1LqTrFetXGLPaoEPakD-35" value="" style="endArrow=classic;html=1;rounded=0;exitX=1;exitY=0.5;exitDx=0;exitDy=0;entryX=0;entryY=0.5;entryDx=0;entryDy=0;" parent="1" source="E1LqTrFetXGLPaoEPakD-31" target="E1LqTrFetXGLPaoEPakD-33" edge="1">
          <mxGeometry width="50" height="50" relative="1" as="geometry">
            <mxPoint x="350" y="800" as="sourcePoint" />
            <mxPoint x="400" y="750" as="targetPoint" />
          </mxGeometry>
        </mxCell>
        <mxCell id="E1LqTrFetXGLPaoEPakD-36" value="" style="rhombus;whiteSpace=wrap;html=1;fillColor=#fff2cc;strokeColor=#d6b656;" parent="1" vertex="1">
          <mxGeometry x="680" y="680" width="80" height="80" as="geometry" />
        </mxCell>
        <mxCell id="E1LqTrFetXGLPaoEPakD-37" value="Vyplnit os. udaje (EMAIL)" style="text;html=1;align=center;verticalAlign=middle;whiteSpace=wrap;rounded=0;" parent="1" vertex="1">
          <mxGeometry x="670" y="770" width="100" height="30" as="geometry" />
        </mxCell>
        <mxCell id="E1LqTrFetXGLPaoEPakD-38" value="" style="endArrow=classic;html=1;rounded=0;exitX=1;exitY=0.5;exitDx=0;exitDy=0;entryX=0;entryY=0.5;entryDx=0;entryDy=0;" parent="1" source="E1LqTrFetXGLPaoEPakD-33" target="E1LqTrFetXGLPaoEPakD-36" edge="1">
          <mxGeometry width="50" height="50" relative="1" as="geometry">
            <mxPoint x="410" y="730" as="sourcePoint" />
            <mxPoint x="410" y="760" as="targetPoint" />
          </mxGeometry>
        </mxCell>
        <mxCell id="E1LqTrFetXGLPaoEPakD-39" value="" style="rhombus;whiteSpace=wrap;html=1;fillColor=#d5e8d4;strokeColor=#82b366;" parent="1" vertex="1">
          <mxGeometry x="880" y="800" width="80" height="80" as="geometry" />
        </mxCell>
        <mxCell id="E1LqTrFetXGLPaoEPakD-40" value="" style="rhombus;whiteSpace=wrap;html=1;fillColor=#d5e8d4;strokeColor=#82b366;" parent="1" vertex="1">
          <mxGeometry x="880" y="560" width="80" height="80" as="geometry" />
        </mxCell>
        <mxCell id="E1LqTrFetXGLPaoEPakD-41" value="Zaplatit rezervaci online (simulace)" style="text;html=1;align=center;verticalAlign=middle;whiteSpace=wrap;rounded=0;" parent="1" vertex="1">
          <mxGeometry x="870" y="650" width="110" height="30" as="geometry" />
        </mxCell>
        <mxCell id="E1LqTrFetXGLPaoEPakD-42" value="" style="endArrow=classic;html=1;rounded=0;entryX=0;entryY=0.5;entryDx=0;entryDy=0;exitX=1;exitY=0.5;exitDx=0;exitDy=0;" parent="1" target="E1LqTrFetXGLPaoEPakD-40" edge="1">
          <mxGeometry width="50" height="50" relative="1" as="geometry">
            <mxPoint x="760" y="720" as="sourcePoint" />
            <mxPoint x="860" y="560" as="targetPoint" />
          </mxGeometry>
        </mxCell>
        <mxCell id="E1LqTrFetXGLPaoEPakD-43" value="" style="endArrow=classic;html=1;rounded=0;entryX=0;entryY=0.5;entryDx=0;entryDy=0;exitX=1;exitY=0.5;exitDx=0;exitDy=0;" parent="1" target="E1LqTrFetXGLPaoEPakD-39" edge="1">
          <mxGeometry width="50" height="50" relative="1" as="geometry">
            <mxPoint x="760" y="720" as="sourcePoint" />
            <mxPoint x="850" y="650" as="targetPoint" />
          </mxGeometry>
        </mxCell>
        <mxCell id="E1LqTrFetXGLPaoEPakD-44" value="Zaplatit rezervaci na miste" style="text;html=1;align=center;verticalAlign=middle;whiteSpace=wrap;rounded=0;" parent="1" vertex="1">
          <mxGeometry x="870" y="890" width="100" height="30" as="geometry" />
        </mxCell>
        <mxCell id="oBct8KmnhdGcchYT6sEr-1" value="" style="ellipse;whiteSpace=wrap;html=1;aspect=fixed;fillColor=#e1d5e7;strokeColor=#9673a6;" parent="1" vertex="1">
          <mxGeometry x="120" y="1120" width="80" height="80" as="geometry" />
        </mxCell>
        <mxCell id="oBct8KmnhdGcchYT6sEr-2" value="Administrator" style="text;html=1;align=center;verticalAlign=middle;whiteSpace=wrap;rounded=0;" parent="1" vertex="1">
          <mxGeometry x="130" y="1210" width="60" height="30" as="geometry" />
        </mxCell>
        <mxCell id="oBct8KmnhdGcchYT6sEr-3" value="" style="endArrow=classic;html=1;rounded=0;exitX=1;exitY=0.5;exitDx=0;exitDy=0;entryX=0;entryY=0.5;entryDx=0;entryDy=0;" parent="1" source="oBct8KmnhdGcchYT6sEr-1" target="oBct8KmnhdGcchYT6sEr-4" edge="1">
          <mxGeometry width="50" height="50" relative="1" as="geometry">
            <mxPoint x="230" y="1250" as="sourcePoint" />
            <mxPoint x="320" y="1160" as="targetPoint" />
          </mxGeometry>
        </mxCell>
        <mxCell id="oBct8KmnhdGcchYT6sEr-4" value="" style="rhombus;whiteSpace=wrap;html=1;fillColor=#fff2cc;strokeColor=#d6b656;" parent="1" vertex="1">
          <mxGeometry x="320" y="1000" width="80" height="80" as="geometry" />
        </mxCell>
        <mxCell id="oBct8KmnhdGcchYT6sEr-5" value="Spravovat&amp;nbsp;&lt;div&gt;mistnosti&lt;/div&gt;" style="text;html=1;align=center;verticalAlign=middle;whiteSpace=wrap;rounded=0;" parent="1" vertex="1">
          <mxGeometry x="330" y="1090" width="60" height="30" as="geometry" />
        </mxCell>
        <mxCell id="oBct8KmnhdGcchYT6sEr-6" value="" style="rhombus;whiteSpace=wrap;html=1;fillColor=#fff2cc;strokeColor=#d6b656;" parent="1" vertex="1">
          <mxGeometry x="320" y="1120" width="80" height="80" as="geometry" />
        </mxCell>
        <mxCell id="oBct8KmnhdGcchYT6sEr-7" value="Spravovat&amp;nbsp;&lt;div&gt;uzivatele&lt;/div&gt;" style="text;html=1;align=center;verticalAlign=middle;whiteSpace=wrap;rounded=0;" parent="1" vertex="1">
          <mxGeometry x="330" y="1210" width="60" height="30" as="geometry" />
        </mxCell>
        <mxCell id="oBct8KmnhdGcchYT6sEr-8" value="" style="rhombus;whiteSpace=wrap;html=1;fillColor=#fff2cc;strokeColor=#d6b656;" parent="1" vertex="1">
          <mxGeometry x="320" y="1240" width="80" height="80" as="geometry" />
        </mxCell>
        <mxCell id="oBct8KmnhdGcchYT6sEr-9" value="Spravovat&amp;nbsp;&lt;div&gt;konference&lt;/div&gt;" style="text;html=1;align=center;verticalAlign=middle;whiteSpace=wrap;rounded=0;" parent="1" vertex="1">
          <mxGeometry x="330" y="1330" width="60" height="30" as="geometry" />
        </mxCell>
        <mxCell id="oBct8KmnhdGcchYT6sEr-10" value="" style="endArrow=classic;html=1;rounded=0;exitX=1;exitY=0.5;exitDx=0;exitDy=0;" parent="1" source="oBct8KmnhdGcchYT6sEr-1" target="oBct8KmnhdGcchYT6sEr-6" edge="1">
          <mxGeometry width="50" height="50" relative="1" as="geometry">
            <mxPoint x="210" y="1170" as="sourcePoint" />
            <mxPoint x="330" y="1050" as="targetPoint" />
          </mxGeometry>
        </mxCell>
        <mxCell id="oBct8KmnhdGcchYT6sEr-11" value="" style="endArrow=classic;html=1;rounded=0;exitX=1;exitY=0.5;exitDx=0;exitDy=0;entryX=0;entryY=0.5;entryDx=0;entryDy=0;" parent="1" source="oBct8KmnhdGcchYT6sEr-1" target="oBct8KmnhdGcchYT6sEr-8" edge="1">
          <mxGeometry width="50" height="50" relative="1" as="geometry">
            <mxPoint x="400" y="1280" as="sourcePoint" />
            <mxPoint x="450" y="1230" as="targetPoint" />
          </mxGeometry>
        </mxCell>
        <mxCell id="oBct8KmnhdGcchYT6sEr-15" value="" style="rhombus;whiteSpace=wrap;html=1;fillColor=#fff2cc;strokeColor=#d6b656;" parent="1" vertex="1">
          <mxGeometry x="500" y="1120" width="80" height="80" as="geometry" />
        </mxCell>
        <mxCell id="oBct8KmnhdGcchYT6sEr-16" value="Sprava os. udaju uzivatelu" style="text;html=1;align=center;verticalAlign=middle;whiteSpace=wrap;rounded=0;" parent="1" vertex="1">
          <mxGeometry x="485" y="1210" width="110" height="30" as="geometry" />
        </mxCell>
        <mxCell id="oBct8KmnhdGcchYT6sEr-17" value="" style="endArrow=classic;html=1;rounded=0;exitX=1;exitY=0.5;exitDx=0;exitDy=0;" parent="1" edge="1">
          <mxGeometry width="50" height="50" relative="1" as="geometry">
            <mxPoint x="400" y="1159.44" as="sourcePoint" />
            <mxPoint x="500" y="1159" as="targetPoint" />
          </mxGeometry>
        </mxCell>
        <mxCell id="oBct8KmnhdGcchYT6sEr-18" value="" style="rhombus;whiteSpace=wrap;html=1;fillColor=#fff2cc;strokeColor=#d6b656;" parent="1" vertex="1">
          <mxGeometry x="500" y="1000" width="80" height="80" as="geometry" />
        </mxCell>
        <mxCell id="oBct8KmnhdGcchYT6sEr-19" value="pridavat/odebirat + uprava kapacity" style="text;html=1;align=center;verticalAlign=middle;whiteSpace=wrap;rounded=0;" parent="1" vertex="1">
          <mxGeometry x="485" y="1080" width="110" height="30" as="geometry" />
        </mxCell>
        <mxCell id="oBct8KmnhdGcchYT6sEr-20" value="" style="endArrow=classic;html=1;rounded=0;exitX=1;exitY=0.5;exitDx=0;exitDy=0;" parent="1" edge="1">
          <mxGeometry width="50" height="50" relative="1" as="geometry">
            <mxPoint x="400" y="1039.88" as="sourcePoint" />
            <mxPoint x="500" y="1039.44" as="targetPoint" />
          </mxGeometry>
        </mxCell>
        <mxCell id="oBct8KmnhdGcchYT6sEr-21" value="" style="ellipse;whiteSpace=wrap;html=1;aspect=fixed;fillColor=#dae8fc;strokeColor=#6c8ebf;" parent="1" vertex="1">
          <mxGeometry x="680" y="1120" width="80" height="80" as="geometry" />
        </mxCell>
        <mxCell id="oBct8KmnhdGcchYT6sEr-22" value="Poradatel" style="text;html=1;align=center;verticalAlign=middle;whiteSpace=wrap;rounded=0;" parent="1" vertex="1">
          <mxGeometry x="690" y="1210" width="60" height="30" as="geometry" />
        </mxCell>
        <mxCell id="oBct8KmnhdGcchYT6sEr-23" value="" style="rhombus;whiteSpace=wrap;html=1;fillColor=#dae8fc;strokeColor=#6c8ebf;" parent="1" vertex="1">
          <mxGeometry x="320" y="110" width="80" height="80" as="geometry" />
        </mxCell>
        <mxCell id="oBct8KmnhdGcchYT6sEr-24" value="Zalozit&amp;nbsp;&lt;div&gt;konferenci&lt;/div&gt;" style="text;html=1;align=center;verticalAlign=middle;whiteSpace=wrap;rounded=0;" parent="1" vertex="1">
          <mxGeometry x="330" y="200" width="60" height="30" as="geometry" />
        </mxCell>
        <mxCell id="oBct8KmnhdGcchYT6sEr-25" value="" style="endArrow=classic;html=1;rounded=0;exitX=1;exitY=0.5;exitDx=0;exitDy=0;entryX=0;entryY=0.5;entryDx=0;entryDy=0;" parent="1" source="E1LqTrFetXGLPaoEPakD-1" target="oBct8KmnhdGcchYT6sEr-23" edge="1">
          <mxGeometry width="50" height="50" relative="1" as="geometry">
            <mxPoint x="210" y="290" as="sourcePoint" />
            <mxPoint x="330" y="290" as="targetPoint" />
          </mxGeometry>
        </mxCell>
        <mxCell id="oBct8KmnhdGcchYT6sEr-26" value="" style="endArrow=classic;html=1;rounded=0;exitX=1;exitY=0.5;exitDx=0;exitDy=0;entryX=0;entryY=0.5;entryDx=0;entryDy=0;" parent="1" source="oBct8KmnhdGcchYT6sEr-21" target="oBct8KmnhdGcchYT6sEr-27" edge="1">
          <mxGeometry width="50" height="50" relative="1" as="geometry">
            <mxPoint x="740" y="1070" as="sourcePoint" />
            <mxPoint x="850" y="1160" as="targetPoint" />
          </mxGeometry>
        </mxCell>
        <mxCell id="oBct8KmnhdGcchYT6sEr-27" value="" style="rhombus;whiteSpace=wrap;html=1;fillColor=#fff2cc;strokeColor=#d6b656;" parent="1" vertex="1">
          <mxGeometry x="855" y="1120" width="80" height="80" as="geometry" />
        </mxCell>
        <mxCell id="oBct8KmnhdGcchYT6sEr-28" value="pridavat&lt;div&gt;informace o konferenci&lt;/div&gt;" style="text;html=1;align=center;verticalAlign=middle;whiteSpace=wrap;rounded=0;" parent="1" vertex="1">
          <mxGeometry x="820" y="1200" width="140" height="30" as="geometry" />
        </mxCell>
        <mxCell id="oBct8KmnhdGcchYT6sEr-29" value="" style="endArrow=classic;html=1;rounded=0;exitX=1;exitY=0.5;exitDx=0;exitDy=0;entryX=0;entryY=0.5;entryDx=0;entryDy=0;" parent="1" source="oBct8KmnhdGcchYT6sEr-21" target="oBct8KmnhdGcchYT6sEr-30" edge="1">
          <mxGeometry width="50" height="50" relative="1" as="geometry">
            <mxPoint x="935" y="1160" as="sourcePoint" />
            <mxPoint x="1025" y="1160" as="targetPoint" />
          </mxGeometry>
        </mxCell>
        <mxCell id="oBct8KmnhdGcchYT6sEr-30" value="" style="rhombus;whiteSpace=wrap;html=1;fillColor=#fff2cc;strokeColor=#d6b656;" parent="1" vertex="1">
          <mxGeometry x="855" y="1240" width="80" height="80" as="geometry" />
        </mxCell>
        <mxCell id="oBct8KmnhdGcchYT6sEr-31" value="pridavat mistnosti" style="text;html=1;align=center;verticalAlign=middle;whiteSpace=wrap;rounded=0;" parent="1" vertex="1">
          <mxGeometry x="825" y="1320" width="140" height="30" as="geometry" />
        </mxCell>
        <mxCell id="oBct8KmnhdGcchYT6sEr-32" value="" style="rhombus;whiteSpace=wrap;html=1;fillColor=#fff2cc;strokeColor=#d6b656;" parent="1" vertex="1">
          <mxGeometry x="857" y="1000" width="80" height="80" as="geometry" />
        </mxCell>
        <mxCell id="oBct8KmnhdGcchYT6sEr-33" value="Zobrazit zadosti o prednaseni" style="text;html=1;align=center;verticalAlign=middle;whiteSpace=wrap;rounded=0;" parent="1" vertex="1">
          <mxGeometry x="827" y="1080" width="140" height="30" as="geometry" />
        </mxCell>
        <mxCell id="oBct8KmnhdGcchYT6sEr-34" value="" style="rhombus;whiteSpace=wrap;html=1;fillColor=#fff2cc;strokeColor=#d6b656;" parent="1" vertex="1">
          <mxGeometry x="1040" y="1000" width="80" height="80" as="geometry" />
        </mxCell>
        <mxCell id="oBct8KmnhdGcchYT6sEr-35" value="Schvalit prednasejici" style="text;html=1;align=center;verticalAlign=middle;whiteSpace=wrap;rounded=0;" parent="1" vertex="1">
          <mxGeometry x="1010" y="1080" width="140" height="30" as="geometry" />
        </mxCell>
        <mxCell id="oBct8KmnhdGcchYT6sEr-36" value="" style="rhombus;whiteSpace=wrap;html=1;fillColor=#fff2cc;strokeColor=#d6b656;" parent="1" vertex="1">
          <mxGeometry x="1040" y="890" width="80" height="80" as="geometry" />
        </mxCell>
        <mxCell id="oBct8KmnhdGcchYT6sEr-37" value="Zobrazit prezentaci prednasejiciho" style="text;html=1;align=center;verticalAlign=middle;whiteSpace=wrap;rounded=0;" parent="1" vertex="1">
          <mxGeometry x="1010" y="970" width="140" height="30" as="geometry" />
        </mxCell>
        <mxCell id="oBct8KmnhdGcchYT6sEr-38" value="" style="endArrow=classic;html=1;rounded=0;exitX=1;exitY=0.5;exitDx=0;exitDy=0;entryX=0;entryY=0.5;entryDx=0;entryDy=0;" parent="1" source="oBct8KmnhdGcchYT6sEr-21" target="oBct8KmnhdGcchYT6sEr-32" edge="1">
          <mxGeometry width="50" height="50" relative="1" as="geometry">
            <mxPoint x="770" y="1170" as="sourcePoint" />
            <mxPoint x="865" y="1170" as="targetPoint" />
          </mxGeometry>
        </mxCell>
        <mxCell id="oBct8KmnhdGcchYT6sEr-39" value="" style="endArrow=classic;html=1;rounded=0;exitX=1;exitY=0.5;exitDx=0;exitDy=0;entryX=0;entryY=0.5;entryDx=0;entryDy=0;" parent="1" source="oBct8KmnhdGcchYT6sEr-32" target="oBct8KmnhdGcchYT6sEr-34" edge="1">
          <mxGeometry width="50" height="50" relative="1" as="geometry">
            <mxPoint x="770" y="1170" as="sourcePoint" />
            <mxPoint x="867" y="1050" as="targetPoint" />
          </mxGeometry>
        </mxCell>
        <mxCell id="oBct8KmnhdGcchYT6sEr-40" value="" style="endArrow=classic;html=1;rounded=0;exitX=1;exitY=0.5;exitDx=0;exitDy=0;entryX=0;entryY=0.5;entryDx=0;entryDy=0;" parent="1" source="oBct8KmnhdGcchYT6sEr-32" target="oBct8KmnhdGcchYT6sEr-36" edge="1">
          <mxGeometry width="50" height="50" relative="1" as="geometry">
            <mxPoint x="947" y="1050" as="sourcePoint" />
            <mxPoint x="1050" y="1050" as="targetPoint" />
          </mxGeometry>
        </mxCell>
        <mxCell id="oBct8KmnhdGcchYT6sEr-41" value="" style="rhombus;whiteSpace=wrap;html=1;fillColor=#fff2cc;strokeColor=#d6b656;" parent="1" vertex="1">
          <mxGeometry x="855" y="1350" width="80" height="80" as="geometry" />
        </mxCell>
        <mxCell id="oBct8KmnhdGcchYT6sEr-42" value="upravit casovy plan&lt;div&gt;konference&lt;/div&gt;" style="text;html=1;align=center;verticalAlign=middle;whiteSpace=wrap;rounded=0;" parent="1" vertex="1">
          <mxGeometry x="825" y="1430" width="140" height="30" as="geometry" />
        </mxCell>
        <mxCell id="oBct8KmnhdGcchYT6sEr-43" value="" style="endArrow=classic;html=1;rounded=0;exitX=1;exitY=0.5;exitDx=0;exitDy=0;entryX=0;entryY=0.5;entryDx=0;entryDy=0;" parent="1" source="oBct8KmnhdGcchYT6sEr-21" target="oBct8KmnhdGcchYT6sEr-41" edge="1">
          <mxGeometry width="50" height="50" relative="1" as="geometry">
            <mxPoint x="770" y="1170" as="sourcePoint" />
            <mxPoint x="865" y="1290" as="targetPoint" />
          </mxGeometry>
        </mxCell>
        <mxCell id="oBct8KmnhdGcchYT6sEr-44" value="NOTE: Na zaklade toho upravovat prednasejici v ramci mistnosti" style="text;html=1;align=left;verticalAlign=middle;whiteSpace=wrap;rounded=0;" parent="1" vertex="1">
          <mxGeometry x="950" y="1375" width="280" height="30" as="geometry" />
        </mxCell>
        <mxCell id="Ff5113YBJnfzAeWcL6Dg-3" value="" style="endArrow=classic;html=1;rounded=0;exitX=1;exitY=0.5;exitDx=0;exitDy=0;" edge="1" parent="1" source="E1LqTrFetXGLPaoEPakD-39">
          <mxGeometry width="50" height="50" relative="1" as="geometry">
            <mxPoint x="1050" y="670" as="sourcePoint" />
            <mxPoint x="1120" y="720" as="targetPoint" />
          </mxGeometry>
        </mxCell>
        <mxCell id="Ff5113YBJnfzAeWcL6Dg-4" value="" style="endArrow=classic;html=1;rounded=0;exitX=1;exitY=0.5;exitDx=0;exitDy=0;" edge="1" parent="1" source="E1LqTrFetXGLPaoEPakD-40">
          <mxGeometry width="50" height="50" relative="1" as="geometry">
            <mxPoint x="1020" y="680" as="sourcePoint" />
            <mxPoint x="1120" y="720" as="targetPoint" />
          </mxGeometry>
        </mxCell>
        <mxCell id="Ff5113YBJnfzAeWcL6Dg-5" value="" style="rhombus;whiteSpace=wrap;html=1;fillColor=#fff2cc;strokeColor=#d6b656;" vertex="1" parent="1">
          <mxGeometry x="1120" y="680" width="80" height="80" as="geometry" />
        </mxCell>
        <mxCell id="Ff5113YBJnfzAeWcL6Dg-6" value="registrovat?" style="text;html=1;align=center;verticalAlign=middle;whiteSpace=wrap;rounded=0;" vertex="1" parent="1">
          <mxGeometry x="1110" y="760" width="100" height="30" as="geometry" />
        </mxCell>
        <mxCell id="Ff5113YBJnfzAeWcL6Dg-7" value="" style="endArrow=classic;html=1;rounded=0;exitX=1;exitY=0.5;exitDx=0;exitDy=0;" edge="1" parent="1" source="Ff5113YBJnfzAeWcL6Dg-5">
          <mxGeometry width="50" height="50" relative="1" as="geometry">
            <mxPoint x="1200" y="800" as="sourcePoint" />
            <mxPoint x="1320" y="720" as="targetPoint" />
          </mxGeometry>
        </mxCell>
        <mxCell id="Ff5113YBJnfzAeWcL6Dg-9" value="Ano" style="text;html=1;align=center;verticalAlign=middle;whiteSpace=wrap;rounded=0;" vertex="1" parent="1">
          <mxGeometry x="1210" y="690" width="100" height="30" as="geometry" />
        </mxCell>
        <mxCell id="Ff5113YBJnfzAeWcL6Dg-11" value="" style="rhombus;whiteSpace=wrap;html=1;fillColor=#fff2cc;strokeColor=#d6b656;" vertex="1" parent="1">
          <mxGeometry x="1320" y="680" width="80" height="80" as="geometry" />
        </mxCell>
        <mxCell id="Ff5113YBJnfzAeWcL6Dg-12" value="vyplnit heslo" style="text;html=1;align=center;verticalAlign=middle;whiteSpace=wrap;rounded=0;" vertex="1" parent="1">
          <mxGeometry x="1310" y="765" width="100" height="30" as="geometry" />
        </mxCell>
        <mxCell id="Ff5113YBJnfzAeWcL6Dg-13" value="" style="ellipse;whiteSpace=wrap;html=1;aspect=fixed;fillColor=#e1d5e7;strokeColor=#9673a6;" vertex="1" parent="1">
          <mxGeometry x="1480" y="680" width="80" height="80" as="geometry" />
        </mxCell>
        <mxCell id="Ff5113YBJnfzAeWcL6Dg-14" value="" style="endArrow=classic;html=1;rounded=0;exitX=1;exitY=0.5;exitDx=0;exitDy=0;entryX=-0.038;entryY=0.479;entryDx=0;entryDy=0;entryPerimeter=0;" edge="1" parent="1" source="Ff5113YBJnfzAeWcL6Dg-11" target="Ff5113YBJnfzAeWcL6Dg-13">
          <mxGeometry width="50" height="50" relative="1" as="geometry">
            <mxPoint x="1210" y="810" as="sourcePoint" />
            <mxPoint x="1330" y="730" as="targetPoint" />
          </mxGeometry>
        </mxCell>
        <mxCell id="Ff5113YBJnfzAeWcL6Dg-15" value="Reg. uživatel" style="text;html=1;align=center;verticalAlign=middle;whiteSpace=wrap;rounded=0;" vertex="1" parent="1">
          <mxGeometry x="1460" y="765" width="100" height="30" as="geometry" />
        </mxCell>
      </root>
    </mxGraphModel>
  </diagram>
</mxfile>
